<?xml version="1.0" standalone="no"?>
<!DOCTYPE svg PUBLIC "-//W3C//DTD SVG 20010904//EN"
 "http://www.w3.org/TR/2001/REC-SVG-20010904/DTD/svg10.dtd">
<svg version="1.0" xmlns="http://www.w3.org/2000/svg"
 width="96.000000pt" height="96.000000pt" viewBox="0 0 96.000000 96.000000"
 preserveAspectRatio="xMidYMid meet">
<metadata>
Created by potrace 1.14, written by Peter Selinger 2001-2017
</metadata>
<g transform="translate(0.000000,96.000000) scale(0.100000,-0.100000)"
fill="#000000" stroke="none">
<path d="M888 852 c-71 -135 -128 -274 -127 -307 2 -38 -22 -128 -46 -179 -20
-41 -81 -110 -103 -117 -11 -4 -8 -23 13 -93 15 -48 28 -86 30 -84 24 24 54
87 70 143 10 39 24 79 31 90 22 35 75 198 79 241 2 23 9 61 15 85 12 43 17 63
26 106 2 12 18 61 35 109 17 47 29 88 26 90 -2 2 -24 -35 -49 -84z"/>
<path d="M70 850 l-55 -6 58 -27 c37 -17 61 -36 67 -51 7 -20 17 -25 57 -28
62 -5 83 0 83 22 0 10 14 32 32 49 l32 32 50 -52 c45 -47 53 -51 98 -53 48 -2
51 0 94 50 24 29 44 55 44 58 0 3 -93 4 -207 3 -114 -2 -227 0 -252 3 -25 3
-71 3 -101 0z"/>
<path d="M120 698 c0 -13 151 -109 161 -102 13 7 11 -3 -4 -34 -9 -18 -13 -67
-13 -154 l1 -127 -54 -18 c-30 -10 -57 -24 -59 -32 -6 -20 309 -7 375 15 106
36 172 114 189 222 4 23 10 45 15 47 4 3 -1 31 -12 62 -23 69 -24 81 -2 105
15 17 14 18 -38 19 -255 5 -559 4 -559 -3z"/>
<path d="M153 584 c3 -27 9 -72 15 -101 6 -28 14 -78 17 -110 7 -59 22 -90 36
-76 4 4 10 69 12 144 l3 136 -35 24 c-53 35 -52 35 -48 -17z"/>
<path d="M214 136 c4 -30 11 -67 15 -82 7 -27 9 -24 20 31 7 33 15 70 18 83 5
19 1 22 -27 22 l-32 0 6 -54z"/>
</g>
</svg>
