<?xml version="1.0" standalone="no"?>
<!DOCTYPE svg PUBLIC "-//W3C//DTD SVG 20010904//EN"
 "http://www.w3.org/TR/2001/REC-SVG-20010904/DTD/svg10.dtd">
<svg version="1.0" xmlns="http://www.w3.org/2000/svg"
 width="96.000000pt" height="96.000000pt" viewBox="0 0 96.000000 96.000000"
 preserveAspectRatio="xMidYMid meet">
<metadata>
Created by potrace 1.14, written by Peter Selinger 2001-2017
</metadata>
<g transform="translate(0.000000,96.000000) scale(0.100000,-0.100000)"
fill="#000000" stroke="none">
<path d="M908 888 c-14 -24 -32 -59 -40 -78 -9 -19 -31 -66 -48 -105 -50 -109
-53 -117 -55 -160 -3 -56 -32 -153 -60 -200 -12 -22 -41 -56 -63 -76 l-40 -36
24 -74 c13 -41 26 -78 28 -84 2 -5 7 -1 12 10 4 11 16 31 25 45 10 14 23 47
29 73 6 27 18 65 27 85 9 21 17 39 17 42 1 3 7 14 13 25 18 34 63 199 59 220
-2 11 3 38 11 59 7 22 16 52 18 68 3 16 20 74 39 129 18 54 32 99 30 99 -1 0
-13 -19 -26 -42z"/>
<path d="M30 839 c0 -5 5 -9 10 -9 30 0 99 -43 104 -66 6 -22 11 -24 71 -24
36 0 64 3 64 8 -3 20 4 34 31 62 17 17 30 32 30 33 0 1 -70 3 -155 4 -90 1
-155 -2 -155 -8z"/>
<path d="M365 840 c-10 -4 -1 -19 33 -54 44 -47 48 -49 96 -47 42 1 55 6 73
29 12 15 33 37 45 50 12 12 20 22 18 23 -18 4 -253 3 -265 -1z"/>
<path d="M120 699 c0 -11 135 -99 152 -99 9 0 20 -4 23 -10 3 -5 2 -10 -4 -10
-5 0 -13 -10 -17 -22 -10 -31 -11 -109 -2 -114 4 -3 4 -13 -1 -22 -5 -9 -7
-45 -5 -79 l4 -62 -43 -12 c-23 -7 -51 -20 -61 -30 -18 -17 -12 -17 130 -14
82 2 171 9 197 15 135 30 205 112 232 270 4 23 -1 54 -14 90 -18 50 -18 56 -4
73 9 9 14 20 11 22 -8 8 -598 12 -598 4z m418 -55 c28 -3 52 -10 52 -15 0 -5
-5 -9 -11 -9 -8 0 -7 -5 1 -15 14 -17 19 -125 9 -188 -7 -45 -35 -87 -70 -104
-13 -7 -51 -13 -85 -13 l-61 0 -2 48 c-1 28 5 56 13 67 12 16 12 22 0 40 -7
11 -15 45 -16 75 -3 52 -2 55 20 52 21 -3 22 -1 12 17 -6 12 -14 21 -18 21 -4
0 -12 8 -19 19 -11 18 -8 18 55 15 37 -2 91 -6 120 -10z"/>
<path d="M480 614 c0 -10 32 -118 48 -164 19 -55 20 -55 28 -25 4 17 8 56 8
87 1 47 -3 62 -21 80 -18 17 -63 33 -63 22z"/>
<path d="M153 583 c3 -21 12 -78 21 -128 23 -130 24 -139 25 -147 1 -5 8 -8
16 -8 12 0 15 14 15 63 0 34 2 96 3 137 2 76 2 76 -31 98 -47 31 -55 28 -49
-15z"/>
<path d="M218 184 c-7 -7 2 -101 12 -129 5 -14 10 -6 19 35 23 106 24 100 -2
100 -13 0 -26 -3 -29 -6z"/>
</g>
</svg>
